<?xml version="1.0" standalone="no"?>
<!DOCTYPE svg PUBLIC "-//W3C//DTD SVG 20010904//EN"
 "http://www.w3.org/TR/2001/REC-SVG-20010904/DTD/svg10.dtd">
<svg version="1.0" xmlns="http://www.w3.org/2000/svg"
 width="680.000000pt" height="680.000000pt" viewBox="0 0 680.000000 680.000000"
 preserveAspectRatio="xMidYMid meet">
<metadata>
Created by potrace 1.14, written by Peter Selinger 2001-2017
</metadata>
<g transform="translate(0.000000,680.000000) scale(0.100000,-0.100000)"
fill="#000000" stroke="none">
<path d="M3502 6530 c-135 -95 -174 -184 -248 -565 -61 -316 -115 -509 -184
-660 -18 -38 -41 -92 -51 -119 -47 -118 -186 -322 -252 -368 -18 -12 -39 -29
-47 -37 -39 -38 -202 -151 -265 -184 -112 -58 -195 -97 -234 -111 -275 -100
-710 -303 -937 -439 -72 -43 -251 -173 -349 -254 -225 -187 -495 -491 -596
-673 -14 -25 -30 -54 -37 -65 -54 -95 -138 -305 -163 -410 -16 -66 -36 -149
-44 -185 -22 -88 -22 -400 -2 -502 8 -40 20 -102 27 -137 11 -64 52 -181 109
-320 66 -157 201 -348 313 -442 206 -173 377 -284 628 -408 80 -40 154 -77
165 -83 11 -6 45 -19 75 -29 30 -10 112 -38 183 -63 117 -42 230 -71 472 -125
341 -75 679 -104 1205 -105 441 -1 665 11 1005 56 806 104 1101 208 1600 565
103 73 354 324 431 429 141 195 188 284 261 492 111 320 133 440 129 707 -2
171 -5 200 -30 290 -52 191 -142 393 -242 545 -148 224 -353 409 -661 597
-107 65 -152 85 -307 138 -101 34 -187 64 -192 67 -5 3 -46 17 -92 32 -135 43
-509 226 -637 311 -141 94 -257 235 -293 355 -6 19 -27 80 -47 135 -54 151
-70 205 -114 380 -66 266 -99 415 -116 520 -32 205 -93 470 -120 521 -8 16
-15 32 -15 36 0 4 -14 29 -31 57 -39 62 -108 101 -179 101 -40 0 -57 -7 -118
-50z"/>
</g>
</svg>
